<mxfile host="65bd71144e">
    <diagram id="cDO_sTf_S4762IbU5qL8" name="Page-1">
        <mxGraphModel dx="2080" dy="1408" grid="1" gridSize="10" guides="1" tooltips="1" connect="1" arrows="1" fold="1" page="1" pageScale="1" pageWidth="850" pageHeight="1100" math="0" shadow="0">
            <root>
                <mxCell id="0"/>
                <mxCell id="1" parent="0"/>
                <mxCell id="2" value="" style="rounded=0;whiteSpace=wrap;html=1;fontSize=14;" vertex="1" parent="1">
                    <mxGeometry width="850" height="1100" as="geometry"/>
                </mxCell>
                <mxCell id="3" value="" style="edgeStyle=none;html=1;fontSize=14;" edge="1" parent="1" source="4" target="6">
                    <mxGeometry relative="1" as="geometry">
                        <Array as="points">
                            <mxPoint x="330" y="80"/>
                        </Array>
                    </mxGeometry>
                </mxCell>
                <mxCell id="15" value="" style="edgeStyle=none;html=1;exitX=0;exitY=0.5;exitDx=0;exitDy=0;fontSize=14;" edge="1" parent="1" source="4" target="14">
                    <mxGeometry relative="1" as="geometry">
                        <mxPoint x="310" y="80" as="sourcePoint"/>
                        <Array as="points">
                            <mxPoint x="95" y="80"/>
                        </Array>
                    </mxGeometry>
                </mxCell>
                <mxCell id="4" value="&lt;font style=&quot;font-size: 16px;&quot;&gt;&lt;b&gt;تحميل الصفحة&amp;nbsp;&lt;br style=&quot;&quot;&gt;الرئيسية&amp;nbsp;&lt;/b&gt;&lt;/font&gt;" style="rounded=1;whiteSpace=wrap;html=1;fillColor=#008a00;fontColor=#ffffff;strokeColor=#005700;fontSize=14;" vertex="1" parent="1">
                    <mxGeometry x="375" y="50" width="120" height="60" as="geometry"/>
                </mxCell>
                <mxCell id="34" value="" style="edgeStyle=orthogonalEdgeStyle;html=1;fontSize=14;" edge="1" parent="1" source="6" target="33">
                    <mxGeometry relative="1" as="geometry"/>
                </mxCell>
                <mxCell id="6" value="تحتوي علي البحث&amp;nbsp;" style="whiteSpace=wrap;html=1;fillColor=#6a00ff;strokeColor=#3700CC;fontColor=#ffffff;rounded=1;fontSize=14;" vertex="1" parent="1">
                    <mxGeometry x="270" y="190" width="120" height="60" as="geometry"/>
                </mxCell>
                <mxCell id="39" value="" style="edgeStyle=orthogonalEdgeStyle;html=1;fontSize=14;" edge="1" parent="1" source="14" target="38">
                    <mxGeometry relative="1" as="geometry"/>
                </mxCell>
                <mxCell id="14" value="تحتوي علي التصنيفات&amp;nbsp;" style="whiteSpace=wrap;html=1;fillColor=#d80073;strokeColor=#A50040;fontColor=#ffffff;rounded=1;fontSize=14;" vertex="1" parent="1">
                    <mxGeometry x="35" y="190" width="120" height="60" as="geometry"/>
                </mxCell>
                <mxCell id="18" value="" style="edgeStyle=none;html=1;fontSize=14;exitX=1;exitY=0.5;exitDx=0;exitDy=0;" edge="1" parent="1" target="20" source="4">
                    <mxGeometry relative="1" as="geometry">
                        <mxPoint x="490" y="80" as="sourcePoint"/>
                        <Array as="points">
                            <mxPoint x="750" y="80"/>
                        </Array>
                    </mxGeometry>
                </mxCell>
                <mxCell id="19" value="" style="edgeStyle=none;html=1;fontSize=14;exitX=1;exitY=0.5;exitDx=0;exitDy=0;" edge="1" parent="1" target="21" source="4">
                    <mxGeometry relative="1" as="geometry">
                        <mxPoint x="490" y="80" as="sourcePoint"/>
                        <Array as="points">
                            <mxPoint x="540" y="80"/>
                        </Array>
                    </mxGeometry>
                </mxCell>
                <mxCell id="44" value="" style="edgeStyle=orthogonalEdgeStyle;html=1;fontSize=14;" edge="1" parent="1" source="20" target="43">
                    <mxGeometry relative="1" as="geometry"/>
                </mxCell>
                <mxCell id="20" value="تحتوي علي عربة التسوق&amp;nbsp;" style="whiteSpace=wrap;html=1;fillColor=#6a00ff;strokeColor=#3700CC;fontColor=#ffffff;rounded=1;fontSize=14;" vertex="1" parent="1">
                    <mxGeometry x="690" y="190" width="120" height="60" as="geometry"/>
                </mxCell>
                <mxCell id="27" value="" style="edgeStyle=orthogonalEdgeStyle;html=1;fontSize=14;" edge="1" parent="1" source="21" target="26">
                    <mxGeometry relative="1" as="geometry"/>
                </mxCell>
                <mxCell id="21" value="تحتوي علي المنتجات&amp;nbsp;" style="whiteSpace=wrap;html=1;fillColor=#d80073;strokeColor=#A50040;fontColor=#ffffff;rounded=1;fontSize=14;" vertex="1" parent="1">
                    <mxGeometry x="480" y="190" width="120" height="60" as="geometry"/>
                </mxCell>
                <mxCell id="32" value="" style="edgeStyle=orthogonalEdgeStyle;html=1;fontSize=14;" edge="1" parent="1" source="26" target="31">
                    <mxGeometry relative="1" as="geometry"/>
                </mxCell>
                <mxCell id="26" value="كل منتج يحتوي علي :-&amp;nbsp;" style="triangle;whiteSpace=wrap;html=1;fillColor=#d80073;strokeColor=#A50040;fontColor=#ffffff;rounded=1;align=left;fontSize=14;" vertex="1" parent="1">
                    <mxGeometry x="480" y="340" width="120" height="130" as="geometry"/>
                </mxCell>
                <mxCell id="31" value="&lt;div style=&quot;font-size: 14px;&quot;&gt;1- صورة&lt;/div&gt;&lt;div style=&quot;font-size: 14px;&quot;&gt;2- عنوان&lt;/div&gt;&lt;div style=&quot;font-size: 14px;&quot;&gt;3- وصف&amp;nbsp;&lt;/div&gt;&lt;div style=&quot;font-size: 14px;&quot;&gt;4- زر إضافة الي عربة التسوق&amp;nbsp;&lt;/div&gt;&lt;div style=&quot;font-size: 14px;&quot;&gt;5- السعر&amp;nbsp;&lt;/div&gt;&lt;div style=&quot;font-size: 14px;&quot;&gt;&lt;br style=&quot;font-size: 14px;&quot;&gt;&lt;/div&gt;&lt;div style=&quot;font-size: 14px;&quot;&gt;6- فتح في صفحة اخري&amp;nbsp;&lt;/div&gt;&lt;div style=&quot;font-size: 14px;&quot;&gt;7- الصفحة الاخري تحتوي علي تفاصيل اكثر عن المنتج مثل&amp;nbsp;&lt;/div&gt;&lt;div style=&quot;font-size: 14px;&quot;&gt;- التقييم&amp;nbsp;&lt;/div&gt;&lt;div style=&quot;font-size: 14px;&quot;&gt;- صورة اكبر&lt;/div&gt;" style="whiteSpace=wrap;html=1;align=center;fillColor=#d80073;strokeColor=#A50040;fontColor=#ffffff;rounded=1;fontSize=14;" vertex="1" parent="1">
                    <mxGeometry x="460" y="565" width="160" height="205" as="geometry"/>
                </mxCell>
                <mxCell id="36" value="" style="edgeStyle=orthogonalEdgeStyle;html=1;fontSize=14;" edge="1" parent="1" source="33" target="35">
                    <mxGeometry relative="1" as="geometry"/>
                </mxCell>
                <mxCell id="33" value="Input للبحث :-&amp;nbsp;" style="triangle;whiteSpace=wrap;html=1;fillColor=#6a00ff;strokeColor=#3700CC;fontColor=#ffffff;rounded=1;align=left;fontSize=14;" vertex="1" parent="1">
                    <mxGeometry x="270" y="340" width="120" height="130" as="geometry"/>
                </mxCell>
                <mxCell id="54" value="" style="edgeStyle=orthogonalEdgeStyle;html=1;fontColor=#FFFFFF;fontSize=14;" edge="1" parent="1" source="35" target="53">
                    <mxGeometry relative="1" as="geometry"/>
                </mxCell>
                <mxCell id="35" value="البحث باسم المنتج فقط&amp;nbsp;" style="whiteSpace=wrap;html=1;fillColor=#6a00ff;strokeColor=#3700CC;fontColor=#ffffff;rounded=1;fontSize=14;" vertex="1" parent="1">
                    <mxGeometry x="260" y="565" width="140" height="95" as="geometry"/>
                </mxCell>
                <mxCell id="42" value="" style="edgeStyle=orthogonalEdgeStyle;html=1;fontSize=14;" edge="1" parent="1" source="38" target="41">
                    <mxGeometry relative="1" as="geometry"/>
                </mxCell>
                <mxCell id="38" value="عرض التصنيفات :-&amp;nbsp;" style="triangle;whiteSpace=wrap;html=1;fillColor=#d80073;strokeColor=#A50040;fontColor=#ffffff;rounded=1;align=left;fontSize=14;" vertex="1" parent="1">
                    <mxGeometry x="40" y="340" width="110" height="130" as="geometry"/>
                </mxCell>
                <mxCell id="41" value="1- كل تصنيف يقوم بعرض المنتجات الخاصة به&amp;nbsp;&lt;br style=&quot;font-size: 14px;&quot;&gt;" style="whiteSpace=wrap;html=1;fillColor=#d80073;strokeColor=#A50040;fontColor=#ffffff;rounded=1;fontSize=14;" vertex="1" parent="1">
                    <mxGeometry x="20" y="570" width="150" height="95" as="geometry"/>
                </mxCell>
                <mxCell id="46" value="" style="edgeStyle=orthogonalEdgeStyle;html=1;fontSize=14;" edge="1" parent="1" source="43" target="45">
                    <mxGeometry relative="1" as="geometry"/>
                </mxCell>
                <mxCell id="43" value="تحتوي علي :-&amp;nbsp;" style="triangle;whiteSpace=wrap;html=1;fillColor=#6a00ff;strokeColor=#3700CC;fontColor=#ffffff;rounded=1;align=left;fontSize=14;" vertex="1" parent="1">
                    <mxGeometry x="690" y="340" width="120" height="130" as="geometry"/>
                </mxCell>
                <mxCell id="45" value="1- زر او ايقونة عند الضغط عليه يعرض المنتجات الموجودة في عربة التسوق&amp;nbsp;&lt;br style=&quot;font-size: 14px;&quot;&gt;&lt;br style=&quot;font-size: 14px;&quot;&gt;2- عرض المنتجات التي تم اضافتها الي عربة التسوق&amp;nbsp;&lt;br style=&quot;font-size: 14px;&quot;&gt;&lt;br style=&quot;font-size: 14px;&quot;&gt;3- كل منتج يحتوي علي زر &lt;br style=&quot;font-size: 14px;&quot;&gt;- ازالة من عربة التسوق&amp;nbsp;&lt;br style=&quot;font-size: 14px;&quot;&gt;- زيادة في عربة التسوق&amp;nbsp;&lt;br style=&quot;font-size: 14px;&quot;&gt;&lt;br style=&quot;font-size: 14px;&quot;&gt;4- خانة لحساب قيمة المنتجات التي تم اضافتها الي العربة&amp;nbsp;" style="whiteSpace=wrap;html=1;align=center;fillColor=#6a00ff;strokeColor=#3700CC;fontColor=#ffffff;rounded=1;fontSize=14;" vertex="1" parent="1">
                    <mxGeometry x="660" y="565" width="180" height="255" as="geometry"/>
                </mxCell>
                <mxCell id="52" value="س: هل تفتح في &lt;br style=&quot;font-size: 14px;&quot;&gt;صفحة اخري &lt;br style=&quot;font-size: 14px;&quot;&gt;ام نفس الصفحة&amp;nbsp;" style="ellipse;shape=cloud;whiteSpace=wrap;html=1;labelBackgroundColor=none;fontColor=#ffffff;fillColor=#a20025;strokeColor=#6F0000;align=center;fontSize=14;" vertex="1" parent="1">
                    <mxGeometry x="720" y="230" width="120" height="100" as="geometry"/>
                </mxCell>
                <mxCell id="58" value="" style="edgeStyle=orthogonalEdgeStyle;html=1;fontColor=#FFFFFF;fontSize=14;" edge="1" parent="1" source="53" target="57">
                    <mxGeometry relative="1" as="geometry"/>
                </mxCell>
                <mxCell id="60" value="" style="edgeStyle=orthogonalEdgeStyle;html=1;fontColor=#FFFFFF;fontSize=14;" edge="1" parent="1" source="53" target="59">
                    <mxGeometry relative="1" as="geometry"/>
                </mxCell>
                <mxCell id="53" value="حالات البحث&amp;nbsp;" style="ellipse;whiteSpace=wrap;html=1;fillColor=#6a00ff;strokeColor=#3700CC;fontColor=#ffffff;rounded=1;fontSize=14;fontStyle=1" vertex="1" parent="1">
                    <mxGeometry x="290" y="747.5" width="80" height="80" as="geometry"/>
                </mxCell>
                <mxCell id="63" style="edgeStyle=orthogonalEdgeStyle;html=1;entryX=1;entryY=0.5;entryDx=0;entryDy=0;fontColor=#FFFFFF;fontSize=14;" edge="1" parent="1" source="57" target="41">
                    <mxGeometry relative="1" as="geometry"/>
                </mxCell>
                <mxCell id="57" value="بحث في حالة التصنيف&amp;nbsp;" style="rhombus;whiteSpace=wrap;html=1;fillColor=#6a00ff;strokeColor=#3700CC;fontColor=#ffffff;rounded=1;fontSize=14;fontStyle=1" vertex="1" parent="1">
                    <mxGeometry x="170" y="743.75" width="90" height="87.5" as="geometry"/>
                </mxCell>
                <mxCell id="62" style="edgeStyle=orthogonalEdgeStyle;html=1;entryX=0;entryY=0.5;entryDx=0;entryDy=0;fontColor=#FFFFFF;fontSize=14;" edge="1" parent="1" source="59" target="31">
                    <mxGeometry relative="1" as="geometry"/>
                </mxCell>
                <mxCell id="59" value="بحث في حالة المنتجات&amp;nbsp;" style="rhombus;whiteSpace=wrap;html=1;fillColor=#6a00ff;strokeColor=#3700CC;fontColor=#ffffff;rounded=1;fontSize=14;fontStyle=1" vertex="1" parent="1">
                    <mxGeometry x="390" y="743.75" width="90" height="87.5" as="geometry"/>
                </mxCell>
            </root>
        </mxGraphModel>
    </diagram>
</mxfile>